# xmcd
#
# Track frame offsets:
#	150
#	14241
#	28093
#	43737
#	56306
#	70158
#	84262
#	96965
#	111806
#	124142
#	136026
#	147021
#
# Disc length: 2122 seconds
#
# Revision: 0
# Processed by: cddbd v1.5.2PL0 Copyright (c) Steve Scherf et al.
# Submitted via: EasyCDDAExtractor 16.0.6.1
#
DISCID=a008480c
DTITLE=Συλλογικός δίσκος - Το τελευταίο βράδυ-Ε. Παπαγιαννοπούλου 2
DYEAR=2009
DGENRE=Λαϊκή
TTITLE0=Μενιδιάτης Μιχάλης-Λιαροπούλου Άννυ - Πετραδάκι, πετραδάκι [1967, μουσ
TTITLE0=Απ. Καλδάρα]
TTITLE1=Μπιθικώτσης Γρηγόρης - Αφού αμαρτήσανε τα δυό σου χείλη [1965, μουσ. Α
TTITLE1=π. Καλδάρα]
TTITLE2=Αγγελόπουλος Μανώλης - Ρίξε στο γυαλί φαρμάκι [1965, μουσ. Απ. Καλδάρα
TTITLE2=]
TTITLE3=Μενιδιάτης Μιχάλης-Κολλητήρη Σοφία - Λίγο, λίγο θα με συνηθίσεις [1963
TTITLE3=, μουσ. Απ. Καλδάρα]
TTITLE4=Μενιδιάτης Μιχάλης - Τόσα χρόνια σαν τυφλός [1964, μουσ. Απ. Καλδάρα]
TTITLE5=Αγγελόπουλος Μανώλης-Βασιλείου Αννούλα - Δεν υπάρχει για μάς χωρισμός 
TTITLE5=[195, μουσ. Απ. Καλδάρα]
TTITLE6=Μοσχολιού Βίκυ - Πήρα απ' τη νιότη χρώματα [1966, μουσ. Απ. Καλδάρα]
TTITLE7=Κόκοτας Σταμάτης - Όνειρο απατηλό [1967, μουσ. Απ. Καλδάρα]
TTITLE8=Καζαντζίδης Στέλιος - Αλλοτινές μου εποχές [1968, μουσ. Απ. Καλδάρα]
TTITLE9=Καζαντζίδης Στέλιος-Διαμάντη Λίτσα - Στο τραπέζι που τα πίνω [1969, μο
TTITLE9=υσ. Απ. Καλδάρα]
TTITLE10=Καζαντζίδης Στέλιος - Αν είναι η αγάπη έγκλημα [1970, μουσ. Απ. Καλδά
TTITLE10=ρα]
TTITLE11=Καλατζής Γιάννης - Η φιλοσοφία του μπαγλαμά [1970, μουσ. Απ. Καλδάρα]
EXTD=
EXTT0=
EXTT1=
EXTT2=
EXTT3=
EXTT4=
EXTT5=
EXTT6=
EXTT7=
EXTT8=
EXTT9=
EXTT10=
EXTT11=
PLAYORDER=
